<?xml version="1.0" standalone="no"?>
<!DOCTYPE svg PUBLIC "-//W3C//DTD SVG 1.1//EN" "http://www.w3.org/Graphics/SVG/1.1/DTD/svg11.dtd" >
<svg xmlns="http://www.w3.org/2000/svg">
<metadata>
Created by FontForge 20120731 at Wed Dec  7 17:19:32 2016
 By admin
</metadata>
<defs>
<font id="iconfont" horiz-adv-x="1024" >
  <font-face 
    font-family="iconfont"
    font-weight="500"
    font-stretch="normal"
    units-per-em="1024"
    panose-1="2 0 6 3 0 0 0 0 0 0"
    ascent="896"
    descent="-128"
    x-height="792"
    bbox="-5 -229 1345 896"
    underline-thickness="0"
    underline-position="0"
    unicode-range="U+0078-E804"
  />
<missing-glyph 
 />
    <glyph glyph-name=".notdef" 
 />
    <glyph glyph-name=".notdef" 
 />
    <glyph glyph-name=".null" horiz-adv-x="0" 
 />
    <glyph glyph-name="nonmarkingreturn" horiz-adv-x="341" 
 />
    <glyph glyph-name="x" unicode="x" horiz-adv-x="1001" 
d="M281 543q-27 -1 -53 -1h-83q-18 0 -36.5 -6t-32.5 -18.5t-23 -32t-9 -45.5v-76h912v41q0 16 -0.5 30t-0.5 18q0 13 -5 29t-17 29.5t-31.5 22.5t-49.5 9h-133v-97h-438v97zM955 310v-52q0 -23 0.5 -52t0.5 -58t-10.5 -47.5t-26 -30t-33 -16t-31.5 -4.5q-14 -1 -29.5 -0.5
t-29.5 0.5h-32l-45 128h-439l-44 -128h-29h-34q-20 0 -45 1q-25 0 -41 9.5t-25.5 23t-13.5 29.5t-4 30v167h911zM163 247q-12 0 -21 -8.5t-9 -21.5t9 -21.5t21 -8.5q13 0 22 8.5t9 21.5t-9 21.5t-22 8.5zM316 123q-8 -26 -14 -48q-5 -19 -10.5 -37t-7.5 -25t-3 -15t1 -14.5
t9.5 -10.5t21.5 -4h37h67h81h80h64h36q23 0 34 12t2 38q-5 13 -9.5 30.5t-9.5 34.5q-5 19 -11 39h-368zM336 498v228q0 11 2.5 23t10 21.5t20.5 15.5t34 6h188q31 0 51.5 -14.5t20.5 -52.5v-227h-327z" />
    <glyph glyph-name="house" unicode="&#xe60f;" horiz-adv-x="1000" 
d="M1000 319l-500 389l-500 -389v159l500 388l500 -388v-159zM875 334v-376h-250v250h-250v-250h-250v376l375 281z" />
    <glyph glyph-name="checkbox" unicode="&#xe608;" 
d="M198 605h633v-632h-633v632z" />
    <glyph glyph-name="image" unicode="&#xe62c;" 
d="M767 457q45 0 77 32t32 77t-32 77t-77 32t-77 -32t-32 -77t32 -77t77 -32zM958 821h-892q-27 0 -45.5 -19t-18.5 -45v-746q0 -26 18.5 -45t45.5 -19h892q27 0 45.5 19t18.5 45v746q0 26 -18.5 45t-45.5 19zM723 371q-12 14 -29 14q-13 0 -29 -13l-42 -36q-15 -10 -27 -10
q-14 0 -25 9l-9 9l-123 133q-15 17 -38 17t-38 -18l-288 -347v592q2 12 10 19.5t20 7.5h814q12 0 20.5 -7.5t8.5 -19.5l1 -593z" />
    <glyph glyph-name="idcard" unicode="&#xe610;" 
d="M899 806h-773q-51 0 -87.5 -36.5t-36.5 -88.5v-597q0 -52 36.5 -88.5t87.5 -36.5h773q51 0 87.5 36.5t36.5 88.5v597q0 52 -36.5 88.5t-87.5 36.5zM953 106q0 -76 -109 -76h-665q-51 0 -80 15.5t-29 57.5v525q0 109 80 109h723q80 0 80 -109v-522zM530 452h282v72h-282
v-72zM530 240h282v71h-282v-71zM358 362q29 16 39 48q17 24 17 54q0 40 -28 68t-68.5 28t-69 -28t-28.5 -68q0 -32 20 -58q11 -29 39 -44q-40 -13 -68.5 -48.5t-37.5 -83.5q28 -15 60 -20t88 -5q91 0 142 26q-9 48 -37.5 83.5t-67.5 47.5z" />
    <glyph glyph-name="user" unicode="&#xe6e8;" 
d="M799 -122h-578q-79 0 -127.5 46t-48.5 125q0 41 3.5 80.5t12.5 84t26 81.5t41 67.5t61.5 48t84.5 17.5q5 0 27.5 -14.5t49.5 -31.5t71 -31.5t88.5 -14.5t88.5 14.5t71 31.5t49.5 31.5t27.5 14.5q47 0 84.5 -17.5t61.5 -48t41 -67.5t26 -81.5t12.5 -84t3.5 -80.5
q0 -79 -48.5 -125t-128.5 -46v0zM510 386q-105 0 -179.5 74.5t-74.5 179.5t74.5 179.5t180 74.5t179.5 -74.5t74 -179.5t-74 -179.5t-180 -74.5v0zM510 386z" />
    <glyph glyph-name="list" unicode="&#xe600;" 
d="M0 609h1024v-64h-1024v64v0zM0 288h1024v-64h-1024v64v0zM0 -33h1024v-64h-1024v64v0z" />
    <glyph glyph-name="wrong" unicode="&#xe604;" 
d="M931 -202l-419 419l-419 -419q-15 -14 -35.5 -14.5t-35 14.5t-14.5 35.5t14 35.5l419 419l-419 419q-14 15 -14 35.5t14.5 35t35 14.5t35.5 -14l419 -419l419 419q15 14 35.5 14t35.5 -14.5t14.5 -35t-14.5 -35.5l-419 -419l419 -419q15 -15 15 -35.5t-15 -35.5
t-35.5 -15t-35.5 15z" />
    <glyph glyph-name="rmb" unicode="&#xe605;" 
d="M883 796l-275 -467h217v-103h-253v-143h253v-104h-253v-208h-130v208h-261v104h261v143h-261v103h223l-272 467h146q191 -348 232 -441h3q14 38 76 155l155 286h139z" />
    <glyph glyph-name="recharge" unicode="&#xe601;" 
d="M856 706q0 34 -30 65t-70 31h-483q-46 0 -74 -32t-28 -65v-836q0 -35 31.5 -65t66.5 -30h488q26 0 45.5 10t29 24.5t15.5 29t7 24.5l2 10q1 648 0 834zM513.5 -188q-17.5 0 -30 13t-12.5 30.5t12.5 30t30 12.5t30 -12.5t12.5 -30t-12.5 -30.5t-30 -13zM783 -80h-539v772
h539v-772zM692 486l-36 34l-138 -143l-146 150l-35 -34l120 -125h-102v-36h131v-70h-131v-35h131v-136h56v136h132v35h-132v70h132v36h-96z" />
    <glyph glyph-name="mobile" unicode="&#xe804;" 
d="M736 896h-448q-40 0 -68 -28t-28 -68v-832q0 -40 28 -68t68 -28h448q40 0 68 28t28 68v832q0 40 -28 68t-68 28zM384 848h256v-32h-256v32zM512 -64q-27 0 -45.5 19t-18.5 45.5t18.5 45t45.5 18.5t45.5 -18.5t18.5 -45t-18.5 -45.5t-45.5 -19zM768 128h-512v640h512v-640
z" />
    <glyph glyph-name="right" unicode="&#xe606;" 
d="M347 -88l-344 344l77 76l267 -266l597 598l77 -77z" />
    <glyph glyph-name="down" unicode="&#xe60e;" 
d="M510.5 889q-102.5 0 -196 -40t-161 -107.5t-107.5 -161t-40 -196t40 -196t107.5 -161t161 -107.5t196 -40t196 40t161 107.5t107.5 161t40 196t-40 196t-107.5 161t-161 107.5t-196 40zM511 -87q-96 0 -183.5 37.5t-150.5 100.5t-100.5 150.5t-37.5 183.5t37.5 183
t100.5 150.5t150.5 100.5t183.5 37t183 -37t150.5 -100.5t100.5 -150.5t37 -183t-37 -183.5t-100.5 -150.5t-150.5 -100.5t-183 -37.5zM684 348l-143 -121v369q0 13 -9 22t-21.5 9t-21.5 -9t-9 -22v-370l-143 122q-9 9 -22 9t-22 -9t-9 -22t9 -22l194 -183q9 -10 23 -9
q14 -1 23 9l194 183q9 9 9 22t-9 22t-21.5 9t-21.5 -9z" />
    <glyph glyph-name="zm-zxbg" unicode="&#xe648;" 
d="M621 366q0 -68 48 -116t116 -48t116 48t48 116t-48 116t-116 48t-116 -48t-48 -116zM694 187v-313l91 91l91 -91v313q-43 -22 -91 -22t-91 22zM112 56v765q0 15 10.5 25.5t25.5 10.5h400v-145q0 -30 21.5 -51.5t51.5 -21.5h146v-37h18h18v73l-218 219h-437
q-30 0 -51.5 -21.5t-21.5 -51.5v-765q0 -30 21.5 -51t51.5 -21h473v36h-473q-15 0 -25.5 10.5t-10.5 25.5v0zM185 566h401v-36h-401v36zM184 420h328v-36h-328v36zM184 275h328v-37h-328v37z" />
    <glyph glyph-name="xy" unicode="&#xe60b;" 
d="M710 288l-473 474l38 38l512 -512l-512 -512l-38 38z" />
    <glyph glyph-name="xz" unicode="&#xe60c;" 
d="M314 288l473 -474l-38 -38l-512 512l512 512l38 -38z" />
    <glyph glyph-name="game" unicode="&#xe602;" 
d="M747 398.5q0 -17.5 12 -29.5t29 -12t29.5 12t12.5 29.5t-12.5 29.5t-29.5 12t-29 -12t-12 -29.5zM664 315.5q0 -17.5 12 -29.5t29 -12t29.5 12t12.5 29.5t-12.5 29.5t-29.5 12t-29 -12t-12 -29.5zM581 398.5q0 -17.5 12 -29.5t29.5 -12t29.5 12t12 29.5t-12 29.5
t-29.5 12t-29.5 -12t-12 -29.5zM920 731q-20 12 -40 13h-713q-69 0 -117.5 -48.5t-48.5 -117.5v-580q0 -69 48.5 -117.5t117 -48.5t117 48.5t48.5 117.5v55h360v-55q0 -69 48.5 -117.5t117 -48.5t117 48.5t48.5 117.5v580q0 18 -3.5 36.5t-13 43t-32 44.5t-54.5 29zM968 -2
q0 -46 -32.5 -78t-78.5 -32t-78 32t-32 78v55h27q12 0 20 8t8 19.5t-8 19.5t-20 8h-27v1h-4v-1h-48v1h-3v-1h-360v1h-3v-1h-48v1h-4v-1h-27q-12 0 -20 -8t-8 -19.5t8 -19.5t20 -8h27v-55q0 -46 -32 -78t-78 -32t-78.5 32t-32.5 78v580q0 46 32.5 78t78.5 32h690
q46 0 78.5 -32t32.5 -78v-580zM318.5 523q-51.5 0 -88 -36.5t-36.5 -88t36.5 -88t88 -36.5t88 36.5t36.5 88t-36.5 88t-88 36.5zM318.5 329q-28.5 0 -48.5 20.5t-20 49t20 49t48.5 20.5t49 -20.5t20.5 -49t-20.5 -49t-49 -20.5zM664 481q0 -17 12 -29t29 -12t29.5 12
t12.5 29t-12.5 29.5t-29.5 12.5t-29 -12.5t-12 -29.5z" />
    <glyph glyph-name="raido" unicode="&#xe609;" 
d="M190 288q0 -88 43 -162t117.5 -117.5t162 -43.5t162 43.5t117.5 117.5t43 162t-43 162.5t-117.5 117.5t-162 43t-162 -43t-117.5 -117.5t-43 -162.5z" />
    <glyph glyph-name="search" unicode="&#xe607;" 
d="M1015 -155l-256 257q95 116 95 266q0 115 -56.5 212t-154 153.5t-212 56.5t-212 -56.5t-154 -153.5t-56.5 -212t56.5 -212t154 -153.5t211.5 -56.5q152 0 268 96l256 -256zM431.5 30q-91.5 0 -169.5 45.5t-123 123t-45 169.5t45 169.5t123 123t169.5 45.5t169.5 -45.5
t123 -123t45 -169.5t-45 -169.5t-123 -123t-169.5 -45.5z" />
    <glyph glyph-name="bank-card" unicode="&#xe611;" 
d="M917 0h-810q-45 0 -76 33t-31 80v542q0 47 31 80t76 33h810q45 0 76 -33t31 -80v-542q0 -47 -31 -80t-76 -33v0v0zM981 623q0 41 -27.5 70.5t-66.5 29.5h-750q-39 0 -66.5 -29.5t-27.5 -70.5v-36h938v36zM43 452v-307q0 -41 27.5 -70.5t66.5 -29.5h750q39 0 66.5 29.5
t27.5 70.5v307h-938zM661 113l64 136h214l-64 -136h-214z" />
    <glyph glyph-name="xx" unicode="&#xe60d;" horiz-adv-x="1064" 
d="M47 572l488 -487l487 487l39 -40l-526 -526l-527 526z" />
    <glyph glyph-name="xs" unicode="&#xe60a;" horiz-adv-x="1064" 
d="M1025 44l-490 490l-490 -490l-40 39l530 530l530 -530z" />
    <glyph glyph-name="bus" unicode="&#xe603;" 
d="M816 128q-27 0 -45.5 -18.5t-18.5 -45.5t18.5 -45.5t45.5 -18.5t45.5 18.5t18.5 45.5t-18.5 45.5t-45.5 18.5zM816 32q-13 0 -22.5 9.5t-9.5 22.5t9.5 22.5t22.5 9.5t22.5 -9.5t9.5 -22.5t-9.5 -22.5t-22.5 -9.5zM208 128q-27 0 -45.5 -18.5t-18.5 -45.5t18.5 -45.5
t45.5 -18.5t45.5 18.5t18.5 45.5t-18.5 45.5t-45.5 18.5zM208 32q-13 0 -22.5 9.5t-9.5 22.5t9.5 22.5t22.5 9.5t22.5 -9.5t9.5 -22.5t-9.5 -22.5t-22.5 -9.5zM448 688h128q7 0 11.5 4.5t4.5 11.5t-4.5 11.5t-11.5 4.5h-128q-7 0 -11.5 -4.5t-4.5 -11.5t4.5 -11.5t11.5 -4.5
zM805 517q4 -5 11 -5t11 5q12 11 0 22l-32 32q-11 12 -22.5 0.5t0.5 -22.5zM805 437q4 -5 11 -5t11 5q12 11 0 22l-112 112q-11 12 -22.5 0.5t0.5 -22.5zM144 640q-7 0 -11.5 -4.5t-4.5 -11.5v-416q0 -7 4.5 -11.5t11.5 -4.5h736q7 0 11.5 4.5t4.5 11.5v416q0 7 -4.5 11.5
t-11.5 4.5h-736zM288 224q0 27 18.5 45.5t45.5 18.5t45.5 -18.5t18.5 -45.5h-128zM496 224h-48q0 40 -28 68t-68 28t-68 -28t-28 -68h-96v384h336v-384zM864 224h-336v384h336v-384zM688 144h-352q-7 0 -11.5 -4.5t-4.5 -11.5v-128q0 -7 4.5 -11.5t11.5 -4.5h352
q7 0 11.5 4.5t4.5 11.5v128q0 7 -4.5 11.5t-11.5 4.5zM672 16h-320v96h320v-96zM1024 496q0 7 -4.5 11.5t-11.5 4.5h-48v128q0 66 -47 113t-113 47h-576q-66 0 -113 -47t-47 -113v-128h-48q-7 0 -11.5 -4.5t-4.5 -11.5v-144v0v0q0 -27 18.5 -45.5t45.5 -18.5v-320
q0 -27 18.5 -45.5t45.5 -18.5v-112q0 -7 4.5 -11.5t11.5 -4.5h128q7 0 11.5 4.5t4.5 11.5v112h448v-112q0 -7 4.5 -11.5t11.5 -4.5h128q7 0 11.5 4.5t4.5 11.5v112q27 0 45.5 18.5t18.5 45.5v320q27 0 45.5 18.5t18.5 45.5v0v0v144zM32 352v128h32v-160q-13 0 -22.5 9.5
t-9.5 22.5zM256 -192h-96v96h96v-96zM864 -192h-96v96h96v-96zM928 -32q0 -13 -9.5 -22.5t-22.5 -9.5h-768q-13 0 -22.5 9.5t-9.5 22.5v672q0 53 37.5 90.5t90.5 37.5h576q53 0 90.5 -37.5t37.5 -90.5v-672zM992 352q0 -13 -9.5 -22.5t-22.5 -9.5v160h32v-128z" />
    <glyph glyph-name="yanzhengma" unicode="&#xe618;" horiz-adv-x="1345" 
d="M1286 637q-19 0 -34.5 14.5t-15.5 35.5q3 12 -4.5 20.5t-20.5 8.5h-1082q-12 0 -20.5 -8t-8.5 -21q0 -19 -14.5 -34.5t-35.5 -15.5q-20 0 -35 14.5t-15 35.5q0 52 37 88.5t88 36.5h1082q53 0 89 -37t36 -88q3 -21 -10.5 -35.5t-35.5 -14.5v0v0zM1211 -212h-1082
q-53 0 -89 36t-36 89q0 19 14.5 34.5t35.5 15.5q20 0 35 -14.5t15 -35.5q0 -13 8.5 -21t20.5 -8h1082q13 0 21.5 8t8.5 21q0 19 14 34.5t36 15.5q19 0 34.5 -14.5t15.5 -35.5q-7 -51 -45.5 -88t-88.5 -37v0v0zM171 96v50h75v304l-84 -29l-4 54l117 41h29v-366h62v-50h-195
v-4v0zM516 325q-21 28 -21 67q0 53 37.5 88.5t96.5 35.5q63 -3 100 -36.5t37 -92.5q0 -43 -22.5 -80t-73.5 -78q-6 -6 -22.5 -21.5t-32 -31t-28.5 -30.5h183v-50h-275v29q70 76 146 146q38 34 54.5 61.5t16.5 54.5q0 35 -21 55t-58 20q-34 0 -54.5 -19t-20.5 -47
q0 -29 16 -46l-58 -25v0v0zM953 200q35 -62 88 -62q37 0 60 22t23 57q0 34 -18.5 52.5t-52.5 18.5h-29v49h29q58 0 58 63q0 28 -19.5 45t-50.5 17q-53 0 -84 -66l-45 29q43 87 133 87q57 0 93 -30t36 -82q0 -58 -54 -92q66 -26 66 -95q0 -59 -39 -94t-102 -35q-87 0 -133 79
l41 37v0v0zM953 200z" />
    <glyph glyph-name="password" unicode="&#xe649;" 
d="M809 469v127q0 6 -0.5 17t-6.5 41.5t-16 59t-32.5 62.5t-52.5 58.5t-79 41.5t-110 17q-197 0 -268 -166q-29 -67 -29 -131v-127h-74q-22 0 -37.5 -15.5t-15.5 -37.5v-488q0 -22 15.5 -37.5t37.5 -15.5h742q22 0 37.5 15.5t15.5 37.5v488q0 22 -15.5 37.5t-37.5 15.5h-74z
M554 141v-112q0 -11 -7.5 -19t-18.5 -8h-32q-11 0 -18.5 8t-7.5 19v112q-43 25 -43 73q0 35 25 60t60 25t60 -25t25 -60q0 -48 -43 -73zM724 469h-424v127q0 10 1 22.5t6 34.5t13.5 41.5t24.5 41t37.5 37t55 25.5t74.5 10t74.5 -10t55 -25.5t37.5 -37t24.5 -41t13.5 -41.5
t6 -34t1 -23v-127zM724 469z" />
    <glyph glyph-name="zm-income" unicode="&#xe676;" 
d="M790 -115h-533q-53 0 -90.5 37.5t-37.5 90.5v751q0 53 37.5 90.5t90.5 37.5h450l211 -212v-667q0 -53 -37 -90.5t-91 -37.5v0zM257 840q-32 0 -54 -22t-22 -54v-751q0 -32 22 -54t54 -22h533q32 0 54 22t22 54v647l-180 180h-429v0zM339 486q5 0 5 5v46q0 6 -5 6
q-11 0 -32 -2t-32 -2q-14 0 -20 10t-1 23q1 5 7 13q5 8 15 8h63q5 0 5 5q2 14 -9 24q-19 21 -55 62q-14 16 -9 31q4 18 22 13q13 -2 23 -14q8 -9 25 -27.5t25 -27.5q3 -5 8 0l59 59q13 12 26 9q11 -3 14.5 -12t-2.5 -19q-2 -2 -4.5 -5t-3.5 -5q-11 -12 -32 -35t-32 -35
q-3 -2 -4 -5t-1 -5t0.5 -6t0.5 -6q0 -1 5 -1h60q12 0 20.5 -8.5t8.5 -20.5q0 -21 -20 -21l-34 -0.5t-34 0.5q-8 0 -8 -8v-43q0 -6 6 -6h59h8q15 0 20 -13q6 -16 -4 -27q-5 -9 -16 -9h-66q-8 0 -7 -7v-19q0 -11 -7 -18.5t-17 -7.5q-25 0 -27 25q0 2 -0.5 7t-0.5 9t1 7
q0 5 -5 5h-67q-11 0 -18 7t-7 18q0 9 7 16.5t16 7.5h34q14 -1 37 -1v0v0zM874 631h-223v235h52v-183h171v-52zM651 570h52v-186h-52v186zM246 308h544v-52h-544v52zM249 120h545v-52h-545v52zM579 503h186v-52h-186v52z" />
    <glyph glyph-name="zm-job" unicode="&#xe677;" 
d="M780 -117h-534q-53 0 -90 37t-37 90v753q0 53 37 90.5t90 37.5h450l212 -212v-669q0 -53 -37.5 -90t-90.5 -37v0zM246 839q-31 0 -53.5 -22t-22.5 -54v-753q0 -32 22.5 -54t53.5 -22h534q32 0 54 22t22 54v649l-180 180h-430v0zM864 630h-223v235h51v-183h172v-52z
M540 479h243v-51h-243v51zM236 307h545v-52h-545v52zM239 118h545v-51h-545v51zM391 688h-48q-6 0 -10 4.5t-4 9.5v12q0 6 4 10t10 4h48q6 0 10 -4t4 -10v-12q0 -5 -4 -9.5t-10 -4.5zM348 688l-46 -233l62 -72l62 72l-42 233h-36z" />
    <glyph glyph-name="excel" unicode="&#xe756;" 
d="M911 473h-162v-100h162v100zM911 345h-162v-100h162v100zM911 602h-162v-101h162v101zM911 94h-162v-101h162v101zM985 702h-390q-7 0 -13 -3v109l-578 -115v-786l578 -115v103q6 -3 13 -3h390q15 0 25 11t10 26v737q0 15 -10 25.5t-25 10.5zM394 130l-70 5l-53 133
l-57 -124l-66 5l84 151l-75 164l66 5l44 -124h8l49 133l70 5l-88 -174zM976 -62h-394v55h132v101h-132v23h132v100h-132v28h132v100h-132v28h132v100h-132v28h132v101h-132v54h394v-718zM911 217h-162v-100h162v100z" />
    <glyph glyph-name="fangchanzhengming" unicode="&#xe643;" horiz-adv-x="1167" 
d="M316 756h152v-50h-152v50v0zM190 465q0 -5 3.5 -9t9.5 -4h378q6 0 9.5 4t3.5 9v25q0 5 -3.5 9t-9.5 4h-378q-6 0 -9.5 -4t-3.5 -9v-25v0zM240 655h26q5 0 9.5 2t8 5.5t5.5 8t2 10.5v100q0 11 -7 18.5t-18 7.5h-26q-10 0 -17.5 -7.5t-7.5 -18.5v-100q0 -11 7.5 -18.5
t17.5 -7.5v0zM505 658q6 -3 13 -3h26q6 0 12 3.5t9.5 9.5t3.5 13v100q0 11 -7.5 18.5t-17.5 7.5h-26q-10 0 -17.5 -7.5t-7.5 -18.5v-100q0 -7 3.5 -13t8.5 -10v0zM914 472h-45v-112l45 -46v158zM670 678v-225h51v261q0 19 -14 30.5t-37 11.5h-76v-28v-28h50q26 0 26 -22v0z
M460 145v-184h432v184l-223 146l-209 -146v0zM839 125v-120h-326v120l158 110l168 -110v0zM114 161v503q-1 40 42 42h34v50h-82q-16 0 -26.5 -12.5t-13.5 -24.5t-4 -24v-580q1 -68 61 -68h267v50h-220q-14 0 -22.5 1.5t-18 7t-13.5 19.5t-4 36v0zM674 411l-283 -188v-65
l279 188l290 -188v65zM195 300q-5 0 -5 -12v-25q0 -14 5 -14h159q2 0 3 1t1.5 3t1 4.5t0.5 5.5v25q0 12 -6 12h-159v0zM64 695v0v3v-2v-1v0z" />
    <glyph glyph-name="zm-zc" unicode="&#xe749;" horiz-adv-x="1037" 
d="M1004 769h-860q-6 0 -11 -5t-5 -11.5t5 -11.5t11 -6h843v-595q1 -6 5.5 -10.5t11.5 -4.5t11.5 4.5t5.5 10.5v612q0 7 -5 12t-12 5v0zM887 697h-823q-25 0 -43 -18t-18 -44v-575q0 -25 18 -43t43 -18h823q26 0 44 18t18 43v575q0 26 -18 44t-44 18v0zM896 60q0 -8 -9 -8
h-823q-8 0 -8 8v575q0 8 8 8h823q9 0 9 -8v-575zM640 393h-110l68 107v0v0l1 1v0q7 15 -7 23t-24 -6v0l-79 -124l-79 125l-1 -1q-9 14 -23 6t-7 -23v0v-1v0h1l67 -107h-109q-7 0 -12.5 -5t-5.5 -12.5t5.5 -12.5t12.5 -5h133v-77h-105v0h-1v0q-8 0 -13 -5t-5 -12.5t5.5 -12.5
t12.5 -5v0h1v0h105v-124v0v0q0 -7 5 -12.5t12.5 -5.5t12.5 5.5t5 12.5v124h107v0q8 0 13 5.5t5 12.5t-5 12t-13 5v0h-107v77h134q7 0 12 5t5 13q0 7 -5 12t-12 5v0zM640 393z" />
    <glyph glyph-name="zm-other" unicode="&#xe687;" 
d="M275 -48q-142 3 -159 4h-17.5h-21.5q-28 2 -41.5 19.5t-4.5 43.5q49 142 82 222q25 61 107 61q333 -2 447 -5q60 -1 78 53q19 60 83 55q32 -3 134 0q39 1 56 -29v-27q-11 -24 -11 -25q-88 -236 -102 -276q-26 -76 -88 -96h-542zM649 807q2 -5 6 -14.5t6 -17t2 -14.5
q2 -114 1 -338q0 -22 -7 -24q-5 -2 -8 -2.5t-5 1.5l-3 3t-1.5 5.5t-0.5 6v6.5v310q0 33 -8.5 41t-41.5 8h-344q-27 0 -35 -8t-8 -35q-1 -269 -1 -311q0 -4 -2 -8.5t-5.5 -10t-5.5 -8.5q-1 2 -4 7.5t-5 10t-2 8.5q-1 196 0 341q0 6 2.5 13t6.5 16t5 14h458zM-5 572
q5 2 13 5.5t15 5.5t13 2q8 1 82 1v-161l-4 -3q-39 -3 -47 -10t-17 -44q-6 -24 -15.5 -66t-18 -77t-15.5 -66l-6 -12v425zM723 422v163q99 0 115 -1q6 0 14 -9t9 -16q1 -9 1 -86h-51q-37 3 -57.5 -8t-23.5 -49q-3 2 -7 6zM260 616h322q11 -25 -17 -25h-287q-14 0 -18 5.5
t0 19.5zM260 518q-5 15 0.5 20.5t20.5 5.5q123 -1 282 0q14 0 19.5 -5t0.5 -21h-323zM255 677q2 2 6.5 6t8 6.5t7.5 2.5q145 1 289 0q4 0 7.5 -2.5t8 -6.5t6.5 -6l-4 -8h-322q-1 0 -3.5 3t-3.5 5zM261 442q-5 13 -2 19.5t16 6.5q34 -1 135.5 -1h157.5q2 0 5 -2t7 -5t5 -4
l-5.5 -5.5t-7 -5.5t-6.5 -2q-70 -1 -305 -1z" />
  </font>
</defs>
</svg>
